<svg width="41" height="41" viewBox="0 0 41 41" fill="none" xmlns="http://www.w3.org/2000/svg">
<path d="M29.2136 9.1214H12.0261C11.4045 9.1214 10.8084 9.36964 10.3688 9.81151C9.9293 10.2534 9.68237 10.8527 9.68237 11.4776V28.7563C9.68237 29.3812 9.9293 29.9805 10.3688 30.4223C10.8084 30.8642 11.4045 31.1125 12.0261 31.1125H18.7278V23.636H15.6516V20.1169H18.7278V17.4348C18.7278 14.384 20.5344 12.6989 23.3015 12.6989C24.6267 12.6989 26.0125 12.9365 26.0125 12.9365V15.9308H24.4856C22.9812 15.9308 22.512 16.8693 22.512 17.8319V20.1169H25.8704L25.3333 23.636H22.512V31.1125H29.2136C29.8352 31.1125 30.4314 30.8642 30.8709 30.4223C31.3104 29.9805 31.5574 29.3812 31.5574 28.7563V11.4776C31.5574 10.8527 31.3104 10.2534 30.8709 9.81151C30.4314 9.36964 29.8352 9.1214 29.2136 9.1214Z" fill="black"/>
<circle cx="20.6199" cy="20.1169" r="19.5" stroke="black"/>
</svg>
