<svg width="41" height="41" viewBox="0 0 41 41" fill="none" xmlns="http://www.w3.org/2000/svg">
<path d="M20.6223 14.4769C17.5168 14.4769 15.012 16.995 15.012 20.117C15.012 23.2389 17.5168 25.7571 20.6223 25.7571C23.7278 25.7571 26.2327 23.2389 26.2327 20.117C26.2327 16.995 23.7278 14.4769 20.6223 14.4769ZM20.6223 23.7838C18.6155 23.7838 16.9749 22.1394 16.9749 20.117C16.9749 18.0946 18.6106 16.4502 20.6223 16.4502C22.634 16.4502 24.2698 18.0946 24.2698 20.117C24.2698 22.1394 22.6292 23.7838 20.6223 23.7838ZM27.7708 14.2462C27.7708 14.9776 27.1848 15.5617 26.4622 15.5617C25.7346 15.5617 25.1536 14.9727 25.1536 14.2462C25.1536 13.5197 25.7395 12.9306 26.4622 12.9306C27.1848 12.9306 27.7708 13.5197 27.7708 14.2462ZM31.4866 15.5813C31.4036 13.8191 31.0032 12.2581 29.719 10.9721C28.4397 9.68597 26.887 9.28345 25.134 9.19509C23.3274 9.09201 17.9124 9.09201 16.1057 9.19509C14.3577 9.27854 12.8049 9.68106 11.5208 10.9671C10.2366 12.2532 9.84106 13.8142 9.75317 15.5764C9.65063 17.3927 9.65063 22.8364 9.75317 24.6526C9.83618 26.4149 10.2366 27.9759 11.5208 29.2619C12.8049 30.548 14.3528 30.9505 16.1057 31.0389C17.9124 31.142 23.3274 31.142 25.134 31.0389C26.887 30.9554 28.4397 30.5529 29.719 29.2619C30.9983 27.9759 31.3987 26.4149 31.4866 24.6526C31.5891 22.8364 31.5891 17.3976 31.4866 15.5813ZM29.1526 26.6014C28.7717 27.5635 28.0344 28.3047 27.0725 28.6925C25.6321 29.2668 22.2141 29.1343 20.6223 29.1343C19.0305 29.1343 15.6077 29.2619 14.1721 28.6925C13.2151 28.3096 12.4778 27.5684 12.092 26.6014C11.5208 25.1533 11.6526 21.7172 11.6526 20.117C11.6526 18.5168 11.5256 15.0757 12.092 13.6326C12.4729 12.6705 13.2102 11.9293 14.1721 11.5415C15.6125 10.9671 19.0305 11.0997 20.6223 11.0997C22.2141 11.0997 25.637 10.9721 27.0725 11.5415C28.0295 11.9243 28.7668 12.6656 29.1526 13.6326C29.7239 15.0806 29.592 18.5168 29.592 20.117C29.592 21.7172 29.7239 25.1582 29.1526 26.6014Z" fill="black"/>
<circle cx="20.6199" cy="20.117" r="19.5" stroke="black"/>
</svg>
