<svg width="41" height="41" viewBox="0 0 41 41" fill="none" xmlns="http://www.w3.org/2000/svg">
<path d="M22.9685 17.5742V21.0643C22.9685 21.1527 22.9002 21.2214 22.8123 21.2214H22.2556C22.2019 21.2214 22.1531 21.1919 22.1287 21.1576L20.5369 18.9977V21.0692C20.5369 21.1576 20.4685 21.2263 20.3806 21.2263H19.824C19.7361 21.2263 19.6677 21.1576 19.6677 21.0692V17.5791C19.6677 17.4908 19.7361 17.422 19.824 17.422H20.3757C20.4246 17.422 20.4783 17.4466 20.5027 17.4908L22.0945 19.6506V17.5791C22.0945 17.4908 22.1629 17.422 22.2507 17.422H22.8074C22.8953 17.4171 22.9685 17.4908 22.9685 17.5742ZM18.9646 17.4171H18.408C18.3201 17.4171 18.2517 17.4859 18.2517 17.5742V21.0643C18.2517 21.1527 18.3201 21.2214 18.408 21.2214H18.9646C19.0525 21.2214 19.1209 21.1527 19.1209 21.0643V17.5742C19.1209 17.4908 19.0525 17.4171 18.9646 17.4171ZM17.6218 20.3427H16.1033V17.5742C16.1033 17.4859 16.0349 17.4171 15.947 17.4171H15.3904C15.3025 17.4171 15.2341 17.4859 15.2341 17.5742V21.0643C15.2341 21.1085 15.2488 21.1429 15.2781 21.1723C15.3074 21.1968 15.3416 21.2165 15.3855 21.2165H17.617C17.7048 21.2165 17.7732 21.1478 17.7732 21.0594V20.4998C17.7732 20.4164 17.7048 20.3427 17.6218 20.3427ZM25.8982 17.4171H23.6668C23.5838 17.4171 23.5105 17.4859 23.5105 17.5742V21.0643C23.5105 21.1478 23.5789 21.2214 23.6668 21.2214H25.8982C25.9861 21.2214 26.0545 21.1527 26.0545 21.0643V20.5047C26.0545 20.4164 25.9861 20.3476 25.8982 20.3476H24.3796V19.7586H25.8982C25.9861 19.7586 26.0545 19.6899 26.0545 19.6015V19.037C26.0545 18.9487 25.9861 18.8799 25.8982 18.8799H24.3796V18.2909H25.8982C25.9861 18.2909 26.0545 18.2222 26.0545 18.1338V17.5742C26.0496 17.4908 25.9812 17.4171 25.8982 17.4171ZM31.5574 13.1318V27.1364C31.5525 29.3355 29.7605 31.1174 27.5681 31.1125H13.6375C11.45 31.1075 9.6775 29.3011 9.68238 27.102V13.0975C9.68727 10.8984 11.4841 9.11649 13.6716 9.1214H27.6023C29.7898 9.12631 31.5623 10.9278 31.5574 13.1318ZM28.5496 19.1499C28.5496 15.5665 24.9754 12.6508 20.5857 12.6508C16.1961 12.6508 12.6218 15.5665 12.6218 19.1499C12.6218 22.3602 15.4539 25.0502 19.282 25.5607C20.2146 25.762 20.1072 26.1056 19.8972 27.3671C19.863 27.5684 19.7361 28.1574 20.5857 27.7991C21.4353 27.4407 25.1707 25.0846 26.8455 23.1505C27.9978 21.8743 28.5496 20.5833 28.5496 19.1499Z" fill="black"/>
<circle cx="20.6199" cy="20.1169" r="19.5" stroke="black"/>
</svg>
